<?xml version="1.0" encoding="utf-8"?>
<!-- Generator: Adobe Illustrator 16.0.4, SVG Export Plug-In . SVG Version: 6.00 Build 0)  -->
<!DOCTYPE svg PUBLIC "-//W3C//DTD SVG 1.1//EN" "http://www.w3.org/Graphics/SVG/1.1/DTD/svg11.dtd">
<svg version="1.1" id="Layer_1" xmlns="http://www.w3.org/2000/svg" xmlns:xlink="http://www.w3.org/1999/xlink" x="0px" y="0px"
	 width="563.174px" height="163.356px" viewBox="0 0 563.174 163.356" enable-background="new 0 0 563.174 163.356"
	 xml:space="preserve">
<g>
	<polygon points="97.957,0.334 0,0.334 0,18.356 25.73,18.356 25.688,107.031 43.718,107.042 43.753,18.356 53.928,18.356 
		53.936,107.031 71.966,107.031 71.951,18.356 97.957,18.356 	"/>
	<path d="M314.955,106.596h-33.05V0.59h33.05c28.547,0,50.074,22.788,50.074,52.997C365.029,83.807,343.502,106.596,314.955,106.596
		L314.955,106.596z M299.935,88.569h15.021c18.564,0,32.048-14.716,32.048-34.982s-13.483-34.962-32.048-34.962h-15.021V88.569
		L299.935,88.569z"/>
	<g>
		<polygon points="251.208,0.291 251.208,72.688 205.104,0.291 185.404,0.291 185.404,107.084 203.426,107.084 203.426,31.226 
			251.736,107.084 269.235,107.084 269.235,0.291 		"/>
	</g>
	<g>
		<polygon points="484.54,35.673 514.539,85.39 545.145,35.986 545.145,107.084 563.174,107.084 563.174,0 546.23,0 514.74,50.832 
			484.074,0 466.503,0 466.503,107.084 484.54,107.084 		"/>
	</g>
	<polygon points="452.516,18.815 452.516,0.792 375.278,0.792 375.278,106.949 452.516,106.949 452.516,88.915 393.313,88.915 
		393.313,63.214 436.576,63.214 436.576,45.185 393.313,45.185 393.313,18.815 	"/>
	<path d="M110.776,79.46h38.155l10.288,27.516h19.245L138.578,0.279H122.65L80.532,106.976h19.385L110.776,79.46z M130.374,29.809
		L142.19,61.43h-24.297L130.374,29.809z"/>
</g>
<g>
	<path fill="#999999" d="M50.405,163.237c-4.332,0-9.07-1.755-12.233-4.335l1.7-2.275c3.276,2.515,6.905,3.917,10.711,3.917
		c4.036,0,7.199-2.225,7.199-5.67v-0.125c0-3.508-3.745-4.8-7.901-5.965c-4.863-1.409-10.242-2.871-10.242-8.192v-0.116
		c0-4.8,4.036-8.254,9.834-8.254c3.57,0,7.607,1.288,10.591,3.275l-1.521,2.395c-2.751-1.813-6.03-2.977-9.186-2.977
		c-4.098,0-6.792,2.229-6.792,5.208v0.112c0,3.343,4.036,4.568,8.313,5.795c4.796,1.346,9.826,3.108,9.826,8.375v0.112
		C60.704,159.844,56.141,163.237,50.405,163.237z"/>
	<path fill="#999999" d="M84.222,163.178c-4.629,0-8.375-2.518-8.375-8.192v-19.552h-4.332v-2.627h4.332v-9.535h2.864v9.535h10.478
		v2.627H78.711v19.257c0,4.277,2.522,5.79,5.973,5.79c1.462,0,2.689-0.286,4.389-1.051v2.697
		C87.552,162.829,86.089,163.178,84.222,163.178z"/>
	<path fill="#999999" d="M101.139,125.018v-3.919h3.566v3.919H101.139z M101.484,162.654v-29.848h2.872v29.848H101.484z"/>
	<path fill="#999999" d="M119.899,162.654v-42.728h2.864v42.728H119.899z"/>
	<path fill="#999999" d="M138.29,162.654v-42.728h2.868v42.728H138.29z"/>
	<path fill="#999999" d="M165.995,163.237c-4.326,0-9.068-1.755-12.228-4.335l1.7-2.275c3.275,2.515,6.899,3.917,10.707,3.917
		c4.037,0,7.199-2.225,7.199-5.67v-0.125c0-3.508-3.75-4.8-7.901-5.965c-4.858-1.409-10.245-2.871-10.245-8.192v-0.116
		c0-4.8,4.036-8.254,9.833-8.254c3.57,0,7.606,1.288,10.59,3.275l-1.518,2.395c-2.75-1.813-6.03-2.977-9.189-2.977
		c-4.099,0-6.792,2.229-6.792,5.208v0.112c0,3.343,4.045,4.568,8.313,5.795c4.805,1.346,9.835,3.108,9.835,8.375v0.112
		C176.3,159.844,171.732,163.237,165.995,163.237z"/>
	<path fill="#999999" d="M249.918,128.067h2.926v12.578h12.699v2.806h-12.699v12.587h-2.926v-12.587h-12.697v-2.806h12.697V128.067z
		"/>
	<path fill="#999999" d="M370.481,162.654v-17.739c0-6.431-3.338-10.184-8.841-10.184c-5.029,0-9.422,3.866-9.422,10.537v17.386
		h-2.863v-17.906c0-6.209-3.4-10.017-8.722-10.017c-5.328,0-9.542,4.688-9.542,10.714v17.208h-2.869v-29.848h2.869v5.325
		c1.932-3.105,4.625-6.024,9.949-6.024c5.204,0,8.426,2.981,10.067,6.431c1.932-3.338,5.15-6.431,10.765-6.431
		c7.088,0,11.473,4.972,11.473,12.461v18.085H370.481z"/>
	<path fill="#999999" d="M401.708,163.356c-8.838,0-15.276-7.137-15.276-15.515v-0.109c0-8.375,6.497-15.625,15.393-15.625
		c8.84,0,15.277,7.133,15.277,15.5v0.125C417.102,156.092,410.606,163.356,401.708,163.356z M413.998,147.733
		c0-7.204-5.387-12.939-12.29-12.939c-7.08,0-12.171,5.798-12.171,12.813v0.125c0,7.194,5.379,12.927,12.287,12.927
		c7.086,0,12.174-5.786,12.174-12.818V147.733z"/>
	<path fill="#999999" d="M439.398,163.178c-4.626,0-8.368-2.518-8.368-8.192v-19.552h-4.335v-2.627h4.335v-9.535h2.868v9.535h10.475
		v2.627h-10.475v19.257c0,4.277,2.511,5.79,5.965,5.79c1.467,0,2.697-0.286,4.394-1.051v2.697
		C442.736,162.829,441.27,163.178,439.398,163.178z"/>
	<path fill="#999999" d="M456.319,125.018v-3.919h3.57v3.919H456.319z M456.668,162.654v-29.848h2.871v29.848H456.668z"/>
	<path fill="#999999" d="M488.149,163.356c-8.841,0-15.275-7.137-15.275-15.515v-0.109c0-8.375,6.505-15.625,15.392-15.625
		c8.84,0,15.283,7.133,15.283,15.5v0.125C503.549,156.092,497.045,163.356,488.149,163.356z M500.437,147.733
		c0-7.204-5.379-12.939-12.287-12.939c-7.079,0-12.171,5.798-12.171,12.813v0.125c0,7.194,5.388,12.927,12.287,12.927
		c7.078,0,12.171-5.786,12.171-12.818V147.733z"/>
	<path fill="#999999" d="M539.664,162.654v-17.739c0-6.139-3.447-10.184-9.478-10.184c-5.86,0-10.362,4.456-10.362,10.661v17.262
		h-2.864v-29.848h2.864v5.558c1.987-3.505,5.325-6.257,10.767-6.257c7.551,0,11.937,5.146,11.937,12.287v18.259H539.664z"/>
</g>
</svg>
