<?xml version="1.0" encoding="utf-8"?>
<!-- Generator: Adobe Illustrator 16.0.4, SVG Export Plug-In . SVG Version: 6.00 Build 0)  -->
<!DOCTYPE svg PUBLIC "-//W3C//DTD SVG 1.1//EN" "http://www.w3.org/Graphics/SVG/1.1/DTD/svg11.dtd">
<svg version="1.1" id="Layer_1" xmlns:sketch="http://www.bohemiancoding.com/sketch/ns"
	 xmlns="http://www.w3.org/2000/svg" xmlns:xlink="http://www.w3.org/1999/xlink" x="0px" y="0px" width="206px" height="59px"
	 viewBox="0 0 206 59" enable-background="new 0 0 206 59" xml:space="preserve">
<title>Logo content</title>
<desc>Created with Sketch.</desc>
<path id="Fill-1" fill="#35999D" d="M29.655,49.059c-10.8,0-19.589-8.783-19.589-19.58c0-10.799,8.789-19.583,19.589-19.583
	c10.801,0,19.588,8.783,19.588,19.583C49.244,40.275,40.457,49.059,29.655,49.059 M29.655,7.417
	c-12.168,0-22.067,9.897-22.067,22.062c0,12.163,9.899,22.058,22.067,22.058s22.068-9.896,22.068-22.058
	C51.723,17.314,41.823,7.417,29.655,7.417"/>
<path id="Fill-2" fill="#35999D" d="M29.655,55.753c-14.492,0-26.282-11.785-26.282-26.273c0-14.489,11.791-26.278,26.282-26.278
	c14.491,0,26.283,11.789,26.283,26.278C55.938,43.968,44.146,55.753,29.655,55.753 M29.655,0.724
	c-15.859,0-28.761,12.899-28.761,28.756c0,15.853,12.902,28.75,28.761,28.75c15.859,0,28.762-12.897,28.762-28.75
	C58.417,13.623,45.514,0.724,29.655,0.724"/>
<path id="Fill-3" fill="#35999D" d="M29.655,34.457c-1.7-1.955-2.957-3.863-2.957-5.138c0-2.347,1.485-3.397,2.957-3.397
	c0.771,0,1.488,0.286,2.016,0.804c0.616,0.604,0.94,1.5,0.94,2.593C32.611,30.594,31.354,32.501,29.655,34.457 M40.468,20.227
	l-1.892,1.603c1.86,2.193,2.885,4.903,2.885,7.627c0,4.356-2.421,8.361-6.231,10.406c-1.209-1.009-2.589-2.263-3.881-3.58
	c2.023-2.314,3.742-4.89,3.742-6.963c0-3.857-2.735-5.876-5.436-5.876c-2.702,0-5.437,2.019-5.437,5.876
	c0,2.074,1.72,4.65,3.745,6.963c-1.293,1.317-2.673,2.573-3.881,3.581c-3.811-2.043-6.232-6.047-6.232-10.407
	c0-2.726,1.024-5.435,2.884-7.627l-1.891-1.603c-2.24,2.64-3.473,5.917-3.473,9.229c0,5.582,3.282,10.687,8.363,13.001l0.696,0.314
	l0.595-0.479c0.458-0.367,2.503-2.036,4.63-4.195c2.13,2.159,4.174,3.828,4.632,4.195l0.596,0.479l0.696-0.316
	c5.077-2.318,8.361-7.42,8.361-12.999C43.941,26.146,42.708,22.869,40.468,20.227"/>
<path id="Fill-4" fill="#35999D" d="M35.003,15.512L33.9,18.504c0.459,0.177,0.906,0.375,1.334,0.604l1.898-2.583
	C36.455,16.132,35.742,15.795,35.003,15.512"/>
<path id="Fill-5" fill="#35999D" d="M29.655,13.857c-0.405,0-0.8,0.03-1.198,0.06l0.428,3.826c0.255-0.017,0.51-0.04,0.77-0.04
	c0.254,0,0.507,0.023,0.759,0.04l0.548-3.82C30.531,13.888,30.097,13.857,29.655,13.857"/>
<path id="Fill-6" fill="#35999D" d="M24.249,15.534c-0.735,0.286-1.442,0.626-2.116,1.018l1.875,2.556
	c0.428-0.229,0.877-0.427,1.335-0.604L24.249,15.534"/>
<path id="Fill-7" fill="#35999D" d="M85.585,40.537h2.137l2.368,3.808l2.368-3.808h2.136v9.006h-1.969v-5.88L90.09,47.51h-0.053
	l-2.509-3.809v5.842h-1.943V40.537"/>
<path id="Fill-8" fill="#35999D" d="M106.104,40.473h1.828l3.861,9.07h-2.072l-0.822-2.021h-3.811l-0.823,2.021h-2.021
	L106.104,40.473L106.104,40.473z M108.189,45.773l-1.197-2.921l-1.198,2.921H108.189L108.189,45.773z"/>
<path id="Fill-9" fill="#35999D" d="M118.811,45.064v-0.023c0-2.561,1.932-4.658,4.697-4.658c1.699,0,2.717,0.566,3.551,1.389
	l-1.26,1.453c-0.695-0.631-1.404-1.017-2.305-1.017c-1.518,0-2.611,1.262-2.611,2.808v0.025c0,1.541,1.068,2.828,2.611,2.828
	c1.03,0,1.661-0.411,2.37-1.055l1.261,1.273c-0.927,0.991-1.957,1.607-3.693,1.607C120.78,49.695,118.811,47.652,118.811,45.064"/>
<path id="Fill-10" fill="#35999D" d="M135.064,40.537h1.982V44.1h3.654v-3.562h1.98v9.006h-1.98v-3.617h-3.654v3.617h-1.982V40.537"
	/>
<path id="Fill-11" fill="#35999D" d="M151.426,40.537h1.98v9.006h-1.98V40.537z"/>
<path id="Fill-12" fill="#35999D" d="M162.252,40.537h1.828l4.221,5.543v-5.543h1.955v9.006h-1.686l-4.361-5.728v5.728h-1.957
	V40.537"/>
<path id="Fill-13" fill="#35999D" d="M178.445,40.537h6.795v1.762h-4.824v1.828h4.246v1.762h-4.246v1.891h4.891v1.764h-6.861V40.537
	"/>
<path id="Fill-14" fill="#35999D" d="M76.103,33.76h-0.541l-6.931-16.391c-2.096-4.968-2.603-5.678-3.246-6.522h4.294
	c0.103,1.147,0.71,2.703,1.218,3.953l5.273,13.182l4.497-10.814l-0.946-2.299c-0.71-1.656-1.218-2.839-2.198-4.022h4.159
	c0.067,0.981,0.102,1.081,1.183,3.853l5.105,13.35l5.071-12.437c1.117-2.704,1.42-3.583,1.42-4.765h4.361
	c-1.352,1.689-2.23,3.718-3.379,6.321L87.936,33.76h-0.54l-5.443-13.45L76.103,33.76"/>
<path id="Fill-15" fill="#35999D" d="M111.605,25.648c0,5.408-3.312,8.011-7.203,8.011c-4.054,0-7.2-2.806-7.2-7.976
	c0-2.062,0.407-4.124,1.59-5.779c1.082-1.555,2.976-2.536,5.61-2.536C110.32,17.369,111.605,22.1,111.605,25.648L111.605,25.648z
	 M104.402,31.261c0.611,0,2.098-0.069,3.044-1.319c0.744-1.048,1.15-2.467,1.15-4.393c0-2.468-0.642-5.813-4.194-5.813
	c-0.572,0-2.093,0.067-3.006,1.35c-0.709,0.948-1.183,2.333-1.183,4.463C100.213,27.475,100.585,31.261,104.402,31.261
	L104.402,31.261z"/>
<path id="Fill-16" fill="#35999D" d="M118.064,18.958c0.846-0.608,2.368-1.588,4.937-1.588c4.801,0,4.801,2.874,4.801,4.529v5.914
	c0,1.894,0,2.941,0.103,4.089c0.066,0.776,0.201,1.082,0.338,1.487h-3.72c0.136-0.405,0.271-0.744,0.339-1.487
	c0.102-1.318,0.102-2.703,0.102-4.089v-5.239c0-1.013,0-2.803-2.504-2.803c-1.588,0-3.145,0.641-4.291,1.722v6.32
	c0,2.333,0.033,3.245,0.102,4.089c0.067,0.743,0.201,1.082,0.338,1.487h-3.721c0.137-0.405,0.271-0.744,0.338-1.487
	c0.103-1.318,0.103-2.703,0.103-4.089v-2.906c-0.069-4.528-0.069-5.036-0.508-6.32l3.076-1.082L118.064,18.958"/>
<path id="Fill-17" fill="#35999D" d="M143.425,33.457c-0.067,0.065-0.372,0.236-0.542,0.236c-0.305,0-0.812-0.508-1.149-1.455
	c-0.573,0.473-1.792,1.421-3.989,1.421c-4.192,0-6.525-3.685-6.525-8.178c0-5.813,3.516-8.112,6.695-8.112
	c1.826,0,2.805,0.675,3.379,1.082c0-2.433,0-4.799-0.102-6.253c-0.066-0.945-0.201-1.384-0.37-1.893l3.278-1.046v18.655
	c0,2.738,0.305,3.379,1.117,4.528L143.425,33.457L143.425,33.457z M141.26,21.155c-0.406-0.439-1.283-1.419-3.043-1.419
	c-2.84,0-4.023,2.837-4.023,5.913c0,3.312,1.422,5.543,3.821,5.543c1.251,0,2.435-0.506,3.245-1.452V21.155L141.26,21.155z"/>
<path id="Fill-18" fill="#35999D" d="M150.729,26.866c0.203,1.048,0.846,4.395,3.988,4.395c2.268,0,3.586-1.421,4.092-1.962
	l1.285,1.926c-0.778,0.777-2.469,2.435-5.544,2.435c-4.698,0-6.966-3.92-6.966-8.28c0-3.682,1.725-8.01,6.492-8.01
	c5.037,0,5.543,4.834,5.715,6.557L150.729,26.866L150.729,26.866z M156.779,22.573c-0.201-0.912-0.742-3.04-2.838-3.04
	c-1.455,0-3.416,1.386-3.383,5.102L156.779,22.573L156.779,22.573z"/>
<path id="Fill-19" fill="#35999D" d="M166.553,19.094c0.609-0.609,1.656-1.725,3.619-1.725c0.168,0,1.148,0,1.148,0.643
	c0,0.202-0.068,0.406-0.17,0.778l-0.473,1.554c-0.305-0.101-0.574-0.203-1.082-0.203c-1.658,0-2.604,1.014-2.908,1.317v6.354
	c0,2.333,0.034,3.245,0.104,4.089c0.066,0.743,0.201,1.082,0.338,1.487h-3.652c0.271-0.744,0.439-1.184,0.439-5.577V24.94
	c0-1.386,0-3.21-0.102-4.562c-0.035-0.88-0.201-1.319-0.373-1.792l2.908-1.082L166.553,19.094"/>
<path id="Fill-20" fill="#35999D" d="M174.363,18.451c0.201-0.777,0.779-0.81,1.59-0.81v-3.887c0-1.588,0-4.326,4.125-4.326
	c1.792,0,3.145,0.607,3.145,1.149c0,0.102-0.034,0.237-0.137,0.541l-0.609,1.521c-0.438-0.405-1.012-0.946-2.061-0.946
	c-1.658,0-1.658,1.149-1.658,2.366v3.583h2.604l-0.338,1.52c-0.168,0.643-0.506,0.81-1.283,0.81h-0.982v7.842
	c0,1.994,0,3.008,0.104,4.089c0.066,0.776,0.201,1.082,0.337,1.487h-3.685c0.304-0.844,0.439-1.184,0.439-5.577V19.97h-2.029
	L174.363,18.451"/>
<path id="Fill-21" fill="#35999D" d="M194.615,32.205c-0.945,0.575-2.4,1.454-4.969,1.454c-4.734,0-4.734-2.94-4.734-4.664v-4.224
	c-0.033-3.786-0.066-4.428-0.203-5.171c-0.066-0.475-0.199-0.778-0.338-1.149l3.381-1.082v10.443c0,1.86,0,3.449,2.57,3.449
	c0.844,0,2.435-0.171,4.227-1.657V23.25c-0.034-3.987-0.034-4.226-0.473-5.609h3.753c-0.407,1.25-0.474,1.588-0.474,5.609v5.982
	c0,1.08,0,2.195,0.438,3.445l-2.975,0.947L194.615,32.205"/>
<path id="Fill-22" fill="#35999D" d="M205.066,27.812c0,2.333,0.034,3.245,0.101,4.089c0.067,0.743,0.202,1.082,0.339,1.487h-3.654
	c0.137-0.405,0.272-0.744,0.339-1.487c0.103-1.318,0.103-2.703,0.103-4.089v-11.05c-0.066-4.597-0.066-5.105-0.508-6.388
	l3.281-1.115V27.812"/>
</svg>
