<?xml version="1.0" encoding="utf-8"?>
<!-- Generator: Adobe Illustrator 16.0.4, SVG Export Plug-In . SVG Version: 6.00 Build 0)  -->
<!DOCTYPE svg PUBLIC "-//W3C//DTD SVG 1.1//EN" "http://www.w3.org/Graphics/SVG/1.1/DTD/svg11.dtd">
<svg version="1.1" id="Layer_1" xmlns="http://www.w3.org/2000/svg" xmlns:xlink="http://www.w3.org/1999/xlink" x="0px" y="0px"
	 width="32px" height="32px" viewBox="0 0 32 32" enable-background="new 0 0 32 32" xml:space="preserve">
<circle fill="#F6F6F6" cx="16" cy="16" r="16"/>
<path fill="#454545" d="M9.442,17.522c0,0.962,0.206,1.827,0.624,2.603c0.416,0.79,0.965,1.459,1.642,2.02
	c0.676,0.554,1.468,0.985,2.354,1.287c0.896,0.312,1.821,0.465,2.775,0.465c1.288,0,2.411-0.296,3.371-0.898
	c0.949-0.603,1.83-1.393,2.634-2.381l3.141,2.404c-2.31,2.986-5.544,4.48-9.703,4.48c-1.724,0-3.285-0.295-4.688-0.88
	c-1.398-0.581-2.589-1.394-3.555-2.426c-0.968-1.028-1.716-2.249-2.243-3.646c-0.52-1.398-0.785-2.92-0.785-4.552
	c0-1.63,0.286-3.147,0.858-4.55c0.57-1.396,1.353-2.611,2.352-3.648c1.005-1.031,2.196-1.837,3.583-2.426
	c1.385-0.583,2.899-0.873,4.521-0.873c1.937,0,3.581,0.336,4.923,1.013c1.342,0.677,2.44,1.564,3.303,2.657
	c0.86,1.089,1.482,2.321,1.868,3.693c0.383,1.368,0.579,2.762,0.579,4.179v1.478H9.442z M22.565,14.199
	c-0.039-0.924-0.184-1.774-0.443-2.538c-0.263-0.773-0.651-1.444-1.168-2.012c-0.535-0.571-1.19-1.014-1.975-1.336
	c-0.787-0.323-1.698-0.49-2.746-0.49c-1.015,0-1.947,0.191-2.797,0.579c-0.841,0.385-1.56,0.889-2.14,1.503
	c-0.589,0.62-1.041,1.298-1.365,2.05c-0.321,0.76-0.488,1.504-0.488,2.245H22.565L22.565,14.199z"/>
</svg>
