<?xml version="1.0" encoding="utf-8"?>
<!-- Generator: Adobe Illustrator 16.0.4, SVG Export Plug-In . SVG Version: 6.00 Build 0)  -->
<!DOCTYPE svg PUBLIC "-//W3C//DTD SVG 1.1//EN" "http://www.w3.org/Graphics/SVG/1.1/DTD/svg11.dtd">
<svg version="1.1" id="Layer_1" xmlns="http://www.w3.org/2000/svg" xmlns:xlink="http://www.w3.org/1999/xlink" x="0px" y="0px"
	 width="300.186px" height="197.075px" viewBox="0 0 300.186 197.075" enable-background="new 0 0 300.186 197.075"
	 xml:space="preserve">
<path fill="#454545" d="M22.439,65.157c0,2.448,0.528,4.663,1.596,6.665c1.057,2.007,2.459,3.724,4.197,5.139
	c1.721,1.413,3.735,2.518,6.015,3.305c2.276,0.789,4.64,1.181,7.079,1.181c3.304,0,6.177-0.768,8.617-2.304
	c2.438-1.533,4.688-3.561,6.732-6.081l8.021,6.138c-5.897,7.637-14.158,11.451-24.783,11.451c-4.409,0-8.405-0.745-11.988-2.244
	c-3.572-1.494-6.607-3.558-9.086-6.196c-2.479-2.636-4.381-5.743-5.727-9.323c-1.336-3.582-2.008-7.458-2.008-11.627
	c0-4.169,0.729-8.046,2.189-11.627c1.459-3.58,3.457-6.687,6.014-9.323c2.563-2.638,5.609-4.703,9.154-6.202
	c3.535-1.494,7.406-2.238,11.564-2.238c4.957,0,9.146,0.865,12.574,2.594c3.42,1.734,6.233,3.997,8.443,6.788
	c2.21,2.794,3.794,5.94,4.784,9.442c0.979,3.501,1.469,7.065,1.469,10.687v3.775H22.439z M55.965,56.655
	c-0.079-2.357-0.451-4.525-1.125-6.488c-0.672-1.97-1.672-3.679-2.997-5.136c-1.354-1.455-3.024-2.597-5.032-3.423
	c-1.999-0.826-4.345-1.24-7.021-1.24c-2.595,0-4.977,0.49-7.139,1.475c-2.159,0.984-3.996,2.263-5.483,3.837
	c-1.5,1.576-2.661,3.324-3.486,5.251c-0.826,1.929-1.24,3.837-1.24,5.724L55.965,56.655L55.965,56.655z"/>
<path fill="#454545" d="M110.027,42.491H94.802v25.378c0,1.576,0.038,3.126,0.114,4.663c0.078,1.539,0.375,2.912,0.885,4.132
	c0.509,1.219,1.298,2.205,2.363,2.949c1.058,0.748,2.612,1.123,4.66,1.123c1.258,0,2.555-0.119,3.898-0.355
	c1.336-0.234,2.554-0.668,3.658-1.297v9.678c-1.269,0.71-2.9,1.201-4.898,1.475c-2.007,0.279-3.562,0.414-4.668,0.414
	c-4.101,0-7.251-0.567-9.499-1.711c-2.237-1.142-3.891-2.617-4.958-4.429c-1.065-1.805-1.688-3.832-1.893-6.076
	c-0.19-2.242-0.288-4.505-0.288-6.786V42.49H71.901v-9.208h12.276V17.588h10.625v15.695h15.226L110.027,42.491L110.027,42.491z"/>
<path fill="#454545" d="M123.716-0.001h10.623v41.902h0.24c1.336-2.988,3.66-5.41,6.966-7.259c3.305-1.849,7.116-2.771,11.449-2.771
	c2.67,0,5.243,0.414,7.723,1.24c2.479,0.826,4.65,2.103,6.494,3.832c1.854,1.734,3.324,3.958,4.429,6.673
	c1.104,2.712,1.65,5.921,1.65,9.62v116.923h-10.623V56.184c0-2.594-0.354-4.816-1.058-6.666c-0.711-1.849-1.651-3.349-2.834-4.487
	c-1.182-1.142-2.545-1.968-4.07-2.479c-1.538-0.513-3.132-0.768-4.786-0.768c-2.199,0-4.246,0.355-6.138,1.061
	c-1.893,0.707-3.545,1.83-4.956,3.367c-1.413,1.533-2.519,3.478-3.305,5.841c-0.787,2.363-1.183,5.154-1.183,8.381v28.803h-10.623
	L123.716-0.001L123.716-0.001z"/>
<path fill="#454545" d="M189.582,40.134c2.987-2.757,6.456-4.823,10.384-6.196c3.94-1.379,7.868-2.066,11.808-2.066
	c4.094,0,7.617,0.51,10.565,1.533c2.949,1.022,5.37,2.402,7.253,4.13c1.894,1.734,3.274,3.718,4.198,5.96
	c0.901,2.244,1.354,4.587,1.354,7.022v28.567c0,1.97,0.039,3.775,0.114,5.427c0.076,1.652,0.201,3.229,0.354,4.727h-9.44
	c-0.23-2.833-0.354-5.668-0.354-8.502h-0.23c-2.361,3.622-5.159,6.177-8.387,7.67c-3.229,1.5-6.965,2.244-11.209,2.244
	c-2.604,0-5.083-0.352-7.436-1.062c-2.363-0.705-4.43-1.771-6.196-3.184c-1.775-1.417-3.17-3.171-4.197-5.255
	c-1.019-2.085-1.527-4.505-1.527-7.257c0-3.622,0.809-6.653,2.422-9.092c1.604-2.441,3.812-4.423,6.607-5.962
	c2.785-1.531,6.053-2.636,9.799-3.304c3.736-0.668,7.724-1.004,11.979-1.004h7.791v-2.357c0-1.418-0.277-2.835-0.824-4.251
	c-0.56-1.417-1.386-2.695-2.479-3.837c-1.104-1.139-2.479-2.046-4.132-2.714c-1.651-0.668-3.621-1.004-5.906-1.004
	c-2.048,0-3.832,0.197-5.37,0.591c-1.537,0.403-2.931,0.883-4.188,1.475c-1.259,0.59-2.401,1.277-3.419,2.064
	c-1.029,0.789-2.008,1.537-2.96,2.244L189.582,40.134z M219.563,62.321c-2.518,0-5.091,0.14-7.731,0.414
	c-2.633,0.279-5.035,0.806-7.196,1.595c-2.171,0.787-3.937,1.887-5.312,3.304c-1.384,1.416-2.064,3.228-2.064,5.427
	c0,3.228,1.074,5.551,3.236,6.963c2.171,1.421,5.102,2.128,8.799,2.128c2.9,0,5.39-0.496,7.436-1.475
	c2.047-0.984,3.697-2.263,4.956-3.837c1.26-1.576,2.162-3.324,2.722-5.255c0.547-1.926,0.824-3.833,0.824-5.726v-3.541h-5.668
	L219.563,62.321L219.563,62.321z"/>
<path fill="#454545" d="M250.609,33.283h10.623v8.618h0.23c1.336-2.988,3.659-5.41,6.964-7.259s7.13-2.771,11.451-2.771
	c2.68,0,5.255,0.414,7.731,1.24c2.479,0.826,4.64,2.103,6.493,3.832c1.844,1.734,3.323,3.958,4.429,6.673
	c1.096,2.712,1.652,5.921,1.652,9.62v36.002h-10.625V56.183c0-2.594-0.354-4.816-1.065-6.666c-0.71-1.849-1.651-3.349-2.833-4.487
	c-1.183-1.142-2.535-1.968-4.073-2.479c-1.525-0.513-3.122-0.768-4.772-0.768c-2.21,0-4.255,0.355-6.139,1.061
	c-1.895,0.707-3.546,1.83-4.957,3.367c-1.423,1.533-2.524,3.478-3.313,5.841c-0.777,2.363-1.173,5.154-1.173,8.381v28.804h-10.623
	V33.283L250.609,33.283z"/>
<path fill="#454545" d="M0.001,112.792h11.921l12.563,41.785h0.24l13.392-41.785h11.336l14.157,41.785h0.24l11.922-41.785h11.333
	l-18.049,55.955H58.318l-14.822-41.785h-0.24l-13.517,41.785H18.414L0.001,112.792z"/>
<path fill="#454545" d="M104.349,144.665c0,2.449,0.528,4.668,1.595,6.666c1.058,2.01,2.458,3.728,4.188,5.141
	c1.729,1.412,3.736,2.517,6.021,3.306c2.278,0.787,4.642,1.183,7.08,1.183c3.305,0,6.178-0.771,8.618-2.306
	c2.438-1.536,4.677-3.557,6.723-6.081l8.03,6.139c-5.897,7.635-14.169,11.449-24.793,11.449c-4.399,0-8.396-0.75-11.979-2.246
	c-3.583-1.492-6.607-3.556-9.087-6.188c-2.479-2.642-4.391-5.743-5.727-9.327c-1.336-3.582-2.007-7.465-2.007-11.634
	c0-4.168,0.729-8.039,2.189-11.622c1.449-3.574,3.457-6.688,6.013-9.316c2.556-2.643,5.61-4.707,9.154-6.205
	c3.534-1.5,7.396-2.238,11.564-2.238c4.957,0,9.146,0.863,12.564,2.595c3.43,1.737,6.244,3.995,8.442,6.789
	c2.199,2.788,3.795,5.938,4.784,9.435c0.979,3.508,1.469,7.069,1.469,10.691v3.773h-44.845V144.665z M137.874,136.163
	c-0.087-2.352-0.451-4.521-1.125-6.482c-0.671-1.979-1.671-3.688-3.006-5.139c-1.346-1.451-3.017-2.604-5.023-3.432
	c-2.009-0.826-4.344-1.229-7.021-1.229c-2.595,0-4.977,0.479-7.139,1.47c-2.17,0.989-3.995,2.259-5.495,3.833
	c-1.487,1.576-2.649,3.324-3.478,5.256c-0.825,1.93-1.239,3.832-1.239,5.723H137.874L137.874,136.163z"/>
<path display="none" fill="#454545" d="M16.537,9.001h1.074v8.153h-1.074V9.001z"/>
<path fill="#454545" d="M220.263,121.995h-15.225v25.379c0,1.576,0.038,3.133,0.113,4.67c0.078,1.535,0.377,2.908,0.886,4.131
	c0.508,1.219,1.297,2.209,2.361,2.947c1.059,0.75,2.613,1.123,4.66,1.123c1.258,0,2.555-0.113,3.898-0.354
	c1.336-0.238,2.556-0.662,3.659-1.298v9.685c-1.27,0.712-2.901,1.192-4.899,1.472c-2.008,0.276-3.562,0.414-4.667,0.414
	c-4.102,0-7.262-0.567-9.501-1.711c-2.237-1.145-3.89-2.611-4.956-4.429c-1.066-1.808-1.69-3.834-1.892-6.08
	c-0.193-2.237-0.29-4.495-0.29-6.782v-29.164h-12.274v-9.203h12.274V97.096h10.625v15.695h15.226L220.263,121.995L220.263,121.995z"
	/>
<path fill="#454545" d="M227.344,112.792h12.275l16.562,43.68h0.239l15.89-43.68h11.323l-26.56,67.99
	c-0.941,2.44-1.911,4.67-2.94,6.668c-1.018,2.008-2.228,3.729-3.64,5.141s-3.112,2.517-5.111,3.304
	c-2.007,0.787-4.445,1.183-7.347,1.183c-1.567,0-3.161-0.097-4.766-0.3c-1.614-0.198-3.15-0.604-4.642-1.237l1.286-9.685
	c2.104,0.865,4.229,1.31,6.342,1.31c1.643,0,3.025-0.224,4.159-0.653c1.134-0.431,2.111-1.058,2.931-1.884
	c0.815-0.826,1.508-1.795,2.046-2.9c0.547-1.096,1.095-2.361,1.643-3.775l3.438-8.846L227.344,112.792z"/>
<path fill="#454545" d="M162.667,89.238"/>
</svg>
